<?xml version="1.0" encoding="UTF-8"?>
<svg width="61px" height="56px" viewBox="0 0 61 56" version="1.1" xmlns="http://www.w3.org/2000/svg" xmlns:xlink="http://www.w3.org/1999/xlink">
    <!-- Generator: Sketch 52.4 (67378) - http://www.bohemiancoding.com/sketch -->
    <title>Graphic-House-Small</title>
    <desc>Created with Sketch.</desc>
    <g id="Page-1" stroke="none" stroke-width="1" fill="none" fill-rule="evenodd">
        <g id="(R)-0.1-Home---KDK" transform="translate(-130.000000, -364.000000)">
            <g id="LittleHouse" transform="translate(130.000000, 364.000000)">
                <polygon id="Fill-4" fill="#F7F6EB" points="30.1637647 10.9402353 9.65905882 28.2496471 9.65905882 55.2155294 50.6684706 55.2155294 50.6684706 28.2496471"></polygon>
                <polygon id="Fill-5" fill-opacity="0.1" fill="#000000" points="9.65882353 28.2501176 9.65882353 31.0430588 30.1635294 13.7324706 50.6682353 31.0430588 50.6682353 28.2501176 30.1635294 10.9407059"></polygon>
                <path d="M37.7964706,55.2158824 L37.7964706,40.8323529 C37.7964706,30.5464706 22.5305882,30.5464706 22.5305882,40.8323529 L22.5305882,55.2158824 L37.7964706,55.2158824 Z" id="Fill-7" fill="#566472"></path>
                <path d="M54.1924706,31.2251765 L30.1642353,10.9404706 L6.13482353,31.2251765 C4.57364706,32.5428235 2.23952941,32.3463529 0.920705882,30.784 L0.872470588,30.7275294 C-0.445176471,29.1663529 -0.247529412,26.8322353 1.31364706,25.5134118 L30.1642353,1.15811765 L59.0136471,25.5134118 C60.576,26.8322353 60.7724706,29.1663529 59.4548235,30.7275294 L59.4065882,30.784 C58.0889412,32.3463529 55.7536471,32.5428235 54.1924706,31.2251765" id="Fill-9" fill="#D34E4E"></path>
                <path d="M50.5377647,2.84564706 L41.4248235,2.84564706 C40.9118824,2.84564706 40.4965882,3.26094118 40.4965882,3.77388235 L40.4965882,6.60447059 C40.4965882,7.11623529 40.9118824,7.53270588 41.4248235,7.53270588 L50.5377647,7.53270588 C51.0507059,7.53270588 51.466,7.11623529 51.466,6.60447059 L51.466,3.77388235 C51.466,3.26094118 51.0507059,2.84564706 50.5377647,2.84564706" id="Fill-12" fill="#D34E4E"></path>
                <polygon id="Fill-14" fill="#DE6D6D" points="50.4941176 18.3230588 50.4941176 7.53247059 41.4694118 7.53247059 41.4694118 10.7042353"></polygon>
                <path d="M34.972,42.5814118 C34.0684706,42.5814118 33.3355294,43.3143529 33.3355294,44.2178824 C33.3355294,45.1214118 34.0684706,45.8543529 34.972,45.8543529 C35.8767059,45.8543529 36.6096471,45.1214118 36.6096471,44.2178824 C36.6096471,43.3143529 35.8767059,42.5814118 34.972,42.5814118" id="Fill-16" fill="#ECF0F1"></path>
                <path d="M22.5310588,40.8328235 L22.5310588,55.2163529 L30.164,55.2163529 L30.164,33.1175294 C26.3475294,33.1175294 22.5310588,35.6892941 22.5310588,40.8328235" id="Fill-18" fill="#8A8A8A"></path>
                <polygon id="Fill-20" fill-opacity="0.1" fill="#000000" points="41.4694118 9.50705882 50.4941176 9.50705882 50.4941176 7.53294118 41.4694118 7.53294118"></polygon>
            </g>
        </g>
    </g>
</svg>